<mxfile host="app.diagrams.net" agent="Mozilla/5.0 (Windows NT 10.0; Win64; x64) AppleWebKit/537.36 (KHTML, like Gecko) Chrome/138.0.0.0 YaBrowser/25.8.0.0 Safari/537.36" version="28.2.5">
  <diagram name="Страница — 1" id="-HCQYd-Alhwir2zLJ2nG">
    <mxGraphModel dx="983" dy="636" grid="1" gridSize="10" guides="1" tooltips="1" connect="1" arrows="1" fold="1" page="1" pageScale="1" pageWidth="827" pageHeight="583" math="0" shadow="0">
      <root>
        <mxCell id="0" />
        <mxCell id="1" parent="0" />
        <mxCell id="ecy40NdY98hMxa0iWrW1-1" value="Торговая точка" style="swimlane;fontStyle=0;childLayout=stackLayout;horizontal=1;startSize=30;horizontalStack=0;resizeParent=1;resizeParentMax=0;resizeLast=0;collapsible=1;marginBottom=0;whiteSpace=wrap;html=1;fillColor=#fff2cc;strokeColor=#d6b656;" vertex="1" parent="1">
          <mxGeometry x="20" y="20" width="220" height="230" as="geometry">
            <mxRectangle x="80" y="50" width="60" height="30" as="alternateBounds" />
          </mxGeometry>
        </mxCell>
        <mxCell id="ecy40NdY98hMxa0iWrW1-12" value="&lt;div&gt;&lt;div&gt;PK: ID (INT)&lt;/div&gt;&lt;div&gt;&lt;br&gt;&lt;/div&gt;&lt;div&gt;Адрес (VARCHAR(255))&lt;/div&gt;&lt;div&gt;&lt;br&gt;&lt;/div&gt;&lt;div&gt;Этаж (INT)&lt;/div&gt;&lt;div&gt;&lt;br&gt;&lt;/div&gt;&lt;div&gt;Площадь (DECIMAL(10,2))&lt;/div&gt;&lt;div&gt;&lt;br&gt;&lt;/div&gt;&lt;div&gt;Наличие Кондиционера (BOOLEAN)&lt;/div&gt;&lt;div&gt;&lt;br&gt;&lt;/div&gt;&lt;div&gt;Стоимость Аренды (DECIMAL(12,2))&lt;/div&gt;&lt;/div&gt;&lt;div&gt;&lt;br&gt;&lt;/div&gt;&lt;div&gt;Статус&amp;nbsp;&lt;span style=&quot;background-color: transparent; color: light-dark(rgb(0, 0, 0), rgb(255, 255, 255));&quot;&gt;(BOOLEAN)&lt;/span&gt;&lt;/div&gt;&lt;div&gt;&lt;br&gt;&lt;/div&gt;&lt;div&gt;&lt;br&gt;&lt;/div&gt;" style="text;whiteSpace=wrap;html=1;" vertex="1" parent="ecy40NdY98hMxa0iWrW1-1">
          <mxGeometry y="30" width="220" height="200" as="geometry" />
        </mxCell>
        <mxCell id="ecy40NdY98hMxa0iWrW1-10" value="&lt;span style=&quot;color: rgba(0, 0, 0, 0); font-family: monospace; font-size: 0px; text-align: start;&quot;&gt;%3CmxGraphModel%3E%3Croot%3E%3CmxCell%20id%3D%220%22%2F%3E%3CmxCell%20id%3D%221%22%20parent%3D%220%22%2F%3E%3CmxCell%20id%3D%222%22%20value%3D%22ID_%D1%82%D0%BE%D1%87%D0%BA%D0%B8%20(PK%2C%20INT)%26%2313%3B%26%2310%3B%26%2313%3B%26%2310%3B%D0%90%D0%B4%D1%80%D0%B5%D1%81%20(VARCHAR(255))%26%2313%3B%26%2310%3B%26%2313%3B%26%2310%3B%D0%AD%D1%82%D0%B0%D0%B6%20(TINYINT)%26%2313%3B%26%2310%3B%26%2313%3B%26%2310%3B%D0%9F%D0%BB%D0%BE%D1%89%D0%B0%D0%B4%D1%8C%20(DECIMAL(10%2C2))%26%2313%3B%26%2310%3B%26%2313%3B%26%2310%3B%D0%9D%D0%B0%D0%BB%D0%B8%D1%87%D0%B8%D0%B5%20%D0%BA%D0%BE%D0%BD%D0%B4%D0%B8%D1%86%D0%B8%D0%BE%D0%BD%D0%B5%D1%80%D0%B0%20(BOOLEAN)%26%2313%3B%26%2310%3B%26%2313%3B%26%2310%3B%D0%A1%D1%82%D0%BE%D0%B8%D0%BC%D0%BE%D1%81%D1%82%D1%8C%20%D0%B0%D1%80%D0%B5%D0%BD%D0%B4%D1%8B%20(DECIMAL(10%2C2))%22%20style%3D%22text%3BwhiteSpace%3Dwrap%3Bhtml%3D1%3B%22%20vertex%3D%221%22%20parent%3D%221%22%3E%3CmxGeometry%20x%3D%22650%22%20y%3D%22100%22%20width%3D%22130%22%20height%3D%22180%22%20as%3D%22geometry%22%2F%3E%3C%2FmxCell%3E%3C%2Froot%3E%3C%2FmxGraphModel%3E&lt;/span&gt;" style="text;html=1;align=center;verticalAlign=middle;resizable=0;points=[];autosize=1;strokeColor=none;fillColor=none;" vertex="1" parent="1">
          <mxGeometry x="120" y="48" width="20" height="30" as="geometry" />
        </mxCell>
        <mxCell id="ecy40NdY98hMxa0iWrW1-20" value="Клиент" style="swimlane;fontStyle=0;childLayout=stackLayout;horizontal=1;startSize=30;horizontalStack=0;resizeParent=1;resizeParentMax=0;resizeLast=0;collapsible=1;marginBottom=0;whiteSpace=wrap;html=1;fillColor=#fff2cc;strokeColor=#d6b656;" vertex="1" parent="1">
          <mxGeometry x="320" y="20" width="240" height="200" as="geometry">
            <mxRectangle x="80" y="50" width="60" height="30" as="alternateBounds" />
          </mxGeometry>
        </mxCell>
        <mxCell id="ecy40NdY98hMxa0iWrW1-21" value="&lt;div&gt;&lt;div&gt;&lt;div&gt;PK: ID (INT)&lt;/div&gt;&lt;div&gt;&lt;br&gt;&lt;/div&gt;&lt;div&gt;Название (VARCHAR(255))&lt;/div&gt;&lt;div&gt;&lt;br&gt;&lt;/div&gt;&lt;div&gt;Юридический Адрес (VARCHAR(255))&lt;/div&gt;&lt;div&gt;&lt;br&gt;&lt;/div&gt;&lt;div&gt;Банковские Реквизиты (TEXT)&lt;/div&gt;&lt;div&gt;&lt;br&gt;&lt;/div&gt;&lt;div&gt;Телефон (VARCHAR(50))&lt;/div&gt;&lt;div&gt;&lt;br&gt;&lt;/div&gt;&lt;div&gt;ФИО Контактного Лица (VARCHAR(255))&amp;nbsp;&amp;nbsp;&lt;/div&gt;&lt;/div&gt;&lt;/div&gt;" style="text;whiteSpace=wrap;html=1;" vertex="1" parent="ecy40NdY98hMxa0iWrW1-20">
          <mxGeometry y="30" width="240" height="170" as="geometry" />
        </mxCell>
        <mxCell id="ecy40NdY98hMxa0iWrW1-22" value="&lt;span style=&quot;color: rgba(0, 0, 0, 0); font-family: monospace; font-size: 0px; text-align: start;&quot;&gt;%3CmxGraphModel%3E%3Croot%3E%3CmxCell%20id%3D%220%22%2F%3E%3CmxCell%20id%3D%221%22%20parent%3D%220%22%2F%3E%3CmxCell%20id%3D%222%22%20value%3D%22ID_%D1%82%D0%BE%D1%87%D0%BA%D0%B8%20(PK%2C%20INT)%26%2313%3B%26%2310%3B%26%2313%3B%26%2310%3B%D0%90%D0%B4%D1%80%D0%B5%D1%81%20(VARCHAR(255))%26%2313%3B%26%2310%3B%26%2313%3B%26%2310%3B%D0%AD%D1%82%D0%B0%D0%B6%20(TINYINT)%26%2313%3B%26%2310%3B%26%2313%3B%26%2310%3B%D0%9F%D0%BB%D0%BE%D1%89%D0%B0%D0%B4%D1%8C%20(DECIMAL(10%2C2))%26%2313%3B%26%2310%3B%26%2313%3B%26%2310%3B%D0%9D%D0%B0%D0%BB%D0%B8%D1%87%D0%B8%D0%B5%20%D0%BA%D0%BE%D0%BD%D0%B4%D0%B8%D1%86%D0%B8%D0%BE%D0%BD%D0%B5%D1%80%D0%B0%20(BOOLEAN)%26%2313%3B%26%2310%3B%26%2313%3B%26%2310%3B%D0%A1%D1%82%D0%BE%D0%B8%D0%BC%D0%BE%D1%81%D1%82%D1%8C%20%D0%B0%D1%80%D0%B5%D0%BD%D0%B4%D1%8B%20(DECIMAL(10%2C2))%22%20style%3D%22text%3BwhiteSpace%3Dwrap%3Bhtml%3D1%3B%22%20vertex%3D%221%22%20parent%3D%221%22%3E%3CmxGeometry%20x%3D%22650%22%20y%3D%22100%22%20width%3D%22130%22%20height%3D%22180%22%20as%3D%22geometry%22%2F%3E%3C%2FmxCell%3E%3C%2Froot%3E%3C%2FmxGraphModel%3E&lt;/span&gt;" style="text;html=1;align=center;verticalAlign=middle;resizable=0;points=[];autosize=1;strokeColor=none;fillColor=none;" vertex="1" parent="1">
          <mxGeometry x="390" y="58" width="20" height="30" as="geometry" />
        </mxCell>
        <mxCell id="ecy40NdY98hMxa0iWrW1-23" value="Скидка" style="swimlane;fontStyle=0;childLayout=stackLayout;horizontal=1;startSize=30;horizontalStack=0;resizeParent=1;resizeParentMax=0;resizeLast=0;collapsible=1;marginBottom=0;whiteSpace=wrap;html=1;fillColor=#fff2cc;strokeColor=#d6b656;" vertex="1" parent="1">
          <mxGeometry x="20" y="360" width="160" height="120" as="geometry">
            <mxRectangle x="80" y="50" width="60" height="30" as="alternateBounds" />
          </mxGeometry>
        </mxCell>
        <mxCell id="ecy40NdY98hMxa0iWrW1-24" value="&lt;div&gt;PK: ID_Скидки (INT)&lt;/div&gt;&lt;div&gt;&lt;br&gt;&lt;/div&gt;&lt;div&gt;Название (VARCHAR(255))&lt;/div&gt;&lt;div&gt;&lt;br&gt;&lt;/div&gt;&lt;div&gt;Размер (DECIMAL(10,2))&lt;/div&gt;&lt;div&gt;&lt;br&gt;&lt;/div&gt;" style="text;whiteSpace=wrap;html=1;" vertex="1" parent="ecy40NdY98hMxa0iWrW1-23">
          <mxGeometry y="30" width="160" height="90" as="geometry" />
        </mxCell>
        <mxCell id="ecy40NdY98hMxa0iWrW1-25" value="&lt;span style=&quot;color: rgba(0, 0, 0, 0); font-family: monospace; font-size: 0px; text-align: start;&quot;&gt;%3CmxGraphModel%3E%3Croot%3E%3CmxCell%20id%3D%220%22%2F%3E%3CmxCell%20id%3D%221%22%20parent%3D%220%22%2F%3E%3CmxCell%20id%3D%222%22%20value%3D%22ID_%D1%82%D0%BE%D1%87%D0%BA%D0%B8%20(PK%2C%20INT)%26%2313%3B%26%2310%3B%26%2313%3B%26%2310%3B%D0%90%D0%B4%D1%80%D0%B5%D1%81%20(VARCHAR(255))%26%2313%3B%26%2310%3B%26%2313%3B%26%2310%3B%D0%AD%D1%82%D0%B0%D0%B6%20(TINYINT)%26%2313%3B%26%2310%3B%26%2313%3B%26%2310%3B%D0%9F%D0%BB%D0%BE%D1%89%D0%B0%D0%B4%D1%8C%20(DECIMAL(10%2C2))%26%2313%3B%26%2310%3B%26%2313%3B%26%2310%3B%D0%9D%D0%B0%D0%BB%D0%B8%D1%87%D0%B8%D0%B5%20%D0%BA%D0%BE%D0%BD%D0%B4%D0%B8%D1%86%D0%B8%D0%BE%D0%BD%D0%B5%D1%80%D0%B0%20(BOOLEAN)%26%2313%3B%26%2310%3B%26%2313%3B%26%2310%3B%D0%A1%D1%82%D0%BE%D0%B8%D0%BC%D0%BE%D1%81%D1%82%D1%8C%20%D0%B0%D1%80%D0%B5%D0%BD%D0%B4%D1%8B%20(DECIMAL(10%2C2))%22%20style%3D%22text%3BwhiteSpace%3Dwrap%3Bhtml%3D1%3B%22%20vertex%3D%221%22%20parent%3D%221%22%3E%3CmxGeometry%20x%3D%22650%22%20y%3D%22100%22%20width%3D%22130%22%20height%3D%22180%22%20as%3D%22geometry%22%2F%3E%3C%2FmxCell%3E%3C%2Froot%3E%3C%2FmxGraphModel%3E&lt;/span&gt;" style="text;html=1;align=center;verticalAlign=middle;resizable=0;points=[];autosize=1;strokeColor=none;fillColor=none;" vertex="1" parent="1">
          <mxGeometry x="70" y="478" width="20" height="30" as="geometry" />
        </mxCell>
        <mxCell id="ecy40NdY98hMxa0iWrW1-26" value="Договор" style="swimlane;fontStyle=0;childLayout=stackLayout;horizontal=1;startSize=30;horizontalStack=0;resizeParent=1;resizeParentMax=0;resizeLast=0;collapsible=1;marginBottom=0;whiteSpace=wrap;html=1;fillColor=#fff2cc;strokeColor=#d6b656;" vertex="1" parent="1">
          <mxGeometry x="320" y="260" width="260" height="260" as="geometry">
            <mxRectangle x="80" y="50" width="60" height="30" as="alternateBounds" />
          </mxGeometry>
        </mxCell>
        <mxCell id="ecy40NdY98hMxa0iWrW1-27" value="&lt;div&gt;PK: ID(INT)&lt;/div&gt;&lt;div&gt;&lt;br&gt;&lt;/div&gt;&lt;div&gt;Номер Договора (VARCHAR(100))&lt;/div&gt;&lt;div&gt;&lt;br&gt;&lt;/div&gt;&lt;div&gt;Дата Заключения (DATE)&lt;/div&gt;&lt;div&gt;&lt;br&gt;&lt;/div&gt;&lt;div&gt;Дата Окончания (DATE)&lt;/div&gt;&lt;div&gt;&lt;br&gt;&lt;/div&gt;&lt;div&gt;Финальная Стоимость (DECIMAL(12,2))&lt;/div&gt;&lt;div&gt;&lt;br&gt;&lt;/div&gt;&lt;div&gt;FK: ID_Клиента (INT)&amp;nbsp;&lt;/div&gt;&lt;div&gt;&lt;br&gt;&lt;/div&gt;&lt;div&gt;FK: ID_Точки (INT)&amp;nbsp;&lt;/div&gt;&lt;div&gt;&lt;br&gt;&lt;/div&gt;&lt;div&gt;&lt;div&gt;FK: ID_Скидки (INT)&amp;nbsp;&lt;/div&gt;&lt;div&gt;&lt;br&gt;&lt;/div&gt;&lt;/div&gt;&lt;div&gt;&lt;br&gt;&lt;/div&gt;&lt;div&gt;&lt;br&gt;&lt;/div&gt;" style="text;whiteSpace=wrap;html=1;" vertex="1" parent="ecy40NdY98hMxa0iWrW1-26">
          <mxGeometry y="30" width="260" height="230" as="geometry" />
        </mxCell>
        <mxCell id="ecy40NdY98hMxa0iWrW1-28" value="&lt;span style=&quot;color: rgba(0, 0, 0, 0); font-family: monospace; font-size: 0px; text-align: start;&quot;&gt;%3CmxGraphModel%3E%3Croot%3E%3CmxCell%20id%3D%220%22%2F%3E%3CmxCell%20id%3D%221%22%20parent%3D%220%22%2F%3E%3CmxCell%20id%3D%222%22%20value%3D%22ID_%D1%82%D0%BE%D1%87%D0%BA%D0%B8%20(PK%2C%20INT)%26%2313%3B%26%2310%3B%26%2313%3B%26%2310%3B%D0%90%D0%B4%D1%80%D0%B5%D1%81%20(VARCHAR(255))%26%2313%3B%26%2310%3B%26%2313%3B%26%2310%3B%D0%AD%D1%82%D0%B0%D0%B6%20(TINYINT)%26%2313%3B%26%2310%3B%26%2313%3B%26%2310%3B%D0%9F%D0%BB%D0%BE%D1%89%D0%B0%D0%B4%D1%8C%20(DECIMAL(10%2C2))%26%2313%3B%26%2310%3B%26%2313%3B%26%2310%3B%D0%9D%D0%B0%D0%BB%D0%B8%D1%87%D0%B8%D0%B5%20%D0%BA%D0%BE%D0%BD%D0%B4%D0%B8%D1%86%D0%B8%D0%BE%D0%BD%D0%B5%D1%80%D0%B0%20(BOOLEAN)%26%2313%3B%26%2310%3B%26%2313%3B%26%2310%3B%D0%A1%D1%82%D0%BE%D0%B8%D0%BC%D0%BE%D1%81%D1%82%D1%8C%20%D0%B0%D1%80%D0%B5%D0%BD%D0%B4%D1%8B%20(DECIMAL(10%2C2))%22%20style%3D%22text%3BwhiteSpace%3Dwrap%3Bhtml%3D1%3B%22%20vertex%3D%221%22%20parent%3D%221%22%3E%3CmxGeometry%20x%3D%22650%22%20y%3D%22100%22%20width%3D%22130%22%20height%3D%22180%22%20as%3D%22geometry%22%2F%3E%3C%2FmxCell%3E%3C%2Froot%3E%3C%2FmxGraphModel%3E&lt;/span&gt;" style="text;html=1;align=center;verticalAlign=middle;resizable=0;points=[];autosize=1;strokeColor=none;fillColor=none;" vertex="1" parent="1">
          <mxGeometry x="360" y="318" width="20" height="30" as="geometry" />
        </mxCell>
        <mxCell id="ecy40NdY98hMxa0iWrW1-29" value="Платеж" style="swimlane;fontStyle=0;childLayout=stackLayout;horizontal=1;startSize=30;horizontalStack=0;resizeParent=1;resizeParentMax=0;resizeLast=0;collapsible=1;marginBottom=0;whiteSpace=wrap;html=1;fillColor=#fff2cc;strokeColor=#d6b656;" vertex="1" parent="1">
          <mxGeometry x="640" y="118" width="150" height="200" as="geometry">
            <mxRectangle x="80" y="50" width="60" height="30" as="alternateBounds" />
          </mxGeometry>
        </mxCell>
        <mxCell id="ecy40NdY98hMxa0iWrW1-30" value="&lt;div&gt;&lt;div&gt;&lt;div&gt;PK: ID (INT)&lt;/div&gt;&lt;div&gt;&lt;br&gt;&lt;/div&gt;&lt;div&gt;FK: ID_Договора (INT)&lt;/div&gt;&lt;div&gt;&lt;br&gt;&lt;/div&gt;&lt;div&gt;Месяц (INT)&lt;/div&gt;&lt;div&gt;&lt;br&gt;&lt;/div&gt;&lt;div&gt;Сумма (DECIMAL(12,2))&lt;/div&gt;&lt;div&gt;&lt;br&gt;&lt;/div&gt;&lt;div&gt;Дата Оплаты (DATE)&lt;/div&gt;&lt;div&gt;&lt;br&gt;&lt;/div&gt;&lt;div&gt;Статус (BOOLEAN)&lt;/div&gt;&lt;/div&gt;&lt;/div&gt;" style="text;whiteSpace=wrap;html=1;" vertex="1" parent="ecy40NdY98hMxa0iWrW1-29">
          <mxGeometry y="30" width="150" height="170" as="geometry" />
        </mxCell>
        <mxCell id="ecy40NdY98hMxa0iWrW1-31" value="&lt;span style=&quot;color: rgba(0, 0, 0, 0); font-family: monospace; font-size: 0px; text-align: start;&quot;&gt;%3CmxGraphModel%3E%3Croot%3E%3CmxCell%20id%3D%220%22%2F%3E%3CmxCell%20id%3D%221%22%20parent%3D%220%22%2F%3E%3CmxCell%20id%3D%222%22%20value%3D%22ID_%D1%82%D0%BE%D1%87%D0%BA%D0%B8%20(PK%2C%20INT)%26%2313%3B%26%2310%3B%26%2313%3B%26%2310%3B%D0%90%D0%B4%D1%80%D0%B5%D1%81%20(VARCHAR(255))%26%2313%3B%26%2310%3B%26%2313%3B%26%2310%3B%D0%AD%D1%82%D0%B0%D0%B6%20(TINYINT)%26%2313%3B%26%2310%3B%26%2313%3B%26%2310%3B%D0%9F%D0%BB%D0%BE%D1%89%D0%B0%D0%B4%D1%8C%20(DECIMAL(10%2C2))%26%2313%3B%26%2310%3B%26%2313%3B%26%2310%3B%D0%9D%D0%B0%D0%BB%D0%B8%D1%87%D0%B8%D0%B5%20%D0%BA%D0%BE%D0%BD%D0%B4%D0%B8%D1%86%D0%B8%D0%BE%D0%BD%D0%B5%D1%80%D0%B0%20(BOOLEAN)%26%2313%3B%26%2310%3B%26%2313%3B%26%2310%3B%D0%A1%D1%82%D0%BE%D0%B8%D0%BC%D0%BE%D1%81%D1%82%D1%8C%20%D0%B0%D1%80%D0%B5%D0%BD%D0%B4%D1%8B%20(DECIMAL(10%2C2))%22%20style%3D%22text%3BwhiteSpace%3Dwrap%3Bhtml%3D1%3B%22%20vertex%3D%221%22%20parent%3D%221%22%3E%3CmxGeometry%20x%3D%22650%22%20y%3D%22100%22%20width%3D%22130%22%20height%3D%22180%22%20as%3D%22geometry%22%2F%3E%3C%2FmxCell%3E%3C%2Froot%3E%3C%2FmxGraphModel%3E&lt;/span&gt;" style="text;html=1;align=center;verticalAlign=middle;resizable=0;points=[];autosize=1;strokeColor=none;fillColor=none;" vertex="1" parent="1">
          <mxGeometry x="680" y="176" width="20" height="30" as="geometry" />
        </mxCell>
        <mxCell id="ecy40NdY98hMxa0iWrW1-33" style="edgeStyle=orthogonalEdgeStyle;rounded=0;orthogonalLoop=1;jettySize=auto;html=1;exitX=0;exitY=0.5;exitDx=0;exitDy=0;entryX=1;entryY=0.5;entryDx=0;entryDy=0;" edge="1" parent="1" source="ecy40NdY98hMxa0iWrW1-27" target="ecy40NdY98hMxa0iWrW1-12">
          <mxGeometry relative="1" as="geometry" />
        </mxCell>
        <mxCell id="ecy40NdY98hMxa0iWrW1-38" style="edgeStyle=orthogonalEdgeStyle;rounded=0;orthogonalLoop=1;jettySize=auto;html=1;exitX=0.5;exitY=0;exitDx=0;exitDy=0;entryX=0.538;entryY=0.986;entryDx=0;entryDy=0;entryPerimeter=0;" edge="1" parent="1" source="ecy40NdY98hMxa0iWrW1-26" target="ecy40NdY98hMxa0iWrW1-21">
          <mxGeometry relative="1" as="geometry" />
        </mxCell>
        <mxCell id="ecy40NdY98hMxa0iWrW1-39" style="edgeStyle=orthogonalEdgeStyle;rounded=0;orthogonalLoop=1;jettySize=auto;html=1;exitX=-0.012;exitY=0.896;exitDx=0;exitDy=0;entryX=1;entryY=0.75;entryDx=0;entryDy=0;exitPerimeter=0;" edge="1" parent="1" source="ecy40NdY98hMxa0iWrW1-27" target="ecy40NdY98hMxa0iWrW1-24">
          <mxGeometry relative="1" as="geometry" />
        </mxCell>
        <mxCell id="ecy40NdY98hMxa0iWrW1-40" style="edgeStyle=orthogonalEdgeStyle;rounded=0;orthogonalLoop=1;jettySize=auto;html=1;exitX=0;exitY=0.5;exitDx=0;exitDy=0;entryX=1;entryY=0.5;entryDx=0;entryDy=0;" edge="1" parent="1" source="ecy40NdY98hMxa0iWrW1-30" target="ecy40NdY98hMxa0iWrW1-27">
          <mxGeometry relative="1" as="geometry" />
        </mxCell>
      </root>
    </mxGraphModel>
  </diagram>
</mxfile>
